# xmcd
#
# Track frame offsets: 
#        182
#        13557
#        27512
#        41820
#        53205
#        66110
#        77890
#        89682
#        104632
#        117910
#        130482
#        143427
#        154380
#        167022
#        179985
#        195012
#
# Disc length: 2810 seconds
#
# Revision: 5
# Processed by: cddbd v1.5.2PL0 Copyright (c) Steve Scherf et al.
# Submitted via: ExactAudioCopyFreeDBPlugin 1.0
#
DISCID=e40af810
DTITLE=Various Artist - Smooth Grooves:  The 60's [Rhino]
DYEAR=1997
DGENRE=SMB
TTITLE0=Percy Sledge - When a Man Loves a Woman
TTITLE1=Billy Stewart - I Do Love You
TTITLE2=Joe Tex - Hold What You've Got
TTITLE3=Barbara Lewis - Make Me Your Baby
TTITLE4=Walter Jackson - It's An Uphill Climb to the Bottom
TTITLE5=Peaches and Herb - Close Your Eyes
TTITLE6=Wilson Pickett - If You Need Me
TTITLE7=Sam and Dave - When Something is Wrong with My Baby
TTITLE8=Chris Bartley - The Sweetest Thing This Side of Heaven
TTITLE9=Howard Tate - Get it While You Can
TTITLE10=The Impressions - I'm So Proud
TTITLE11=Otis Redding - That's How Strong My Love Is
TTITLE12=Aretha Franklin - (You Make Me Feel Like) A Natural Woman
TTITLE13=Brenda and The Tabulations - Dry Your Eyes
TTITLE14=Freddie Scott - Cry to Me
TTITLE15=Lorraine Ellison - Stay with Me
EXTD=
EXTT0=
EXTT1=
EXTT2=
EXTT3=
EXTT4=
EXTT5=
EXTT6=
EXTT7=
EXTT8=
EXTT9=
EXTT10=
EXTT11=
EXTT12=
EXTT13=
EXTT14=
EXTT15=
PLAYORDER=
